<svg xmlns="http://www.w3.org/2000/svg" xmlns:xlink="http://www.w3.org/1999/xlink" width="40" zoomAndPan="magnify" viewBox="0 0 30 30.000001" height="40" preserveAspectRatio="xMidYMid meet" version="1.0"><defs><clipPath id="id1"><path d="M 0.484375 0 L 29.515625 0 L 29.515625 29.03125 L 0.484375 29.03125 Z M 0.484375 0 " clip-rule="nonzero"/></clipPath></defs><g clip-path="url(#id1)"><path fill="#1b9df0" d="M 29.515625 14.515625 C 29.515625 15.46875 29.421875 16.414062 29.238281 17.347656 C 29.050781 18.28125 28.777344 19.191406 28.410156 20.070312 C 28.046875 20.953125 27.597656 21.789062 27.070312 22.582031 C 26.539062 23.375 25.9375 24.105469 25.265625 24.78125 C 24.589844 25.453125 23.855469 26.054688 23.066406 26.585938 C 22.273438 27.117188 21.4375 27.5625 20.554688 27.925781 C 19.675781 28.292969 18.765625 28.566406 17.832031 28.753906 C 16.898438 28.9375 15.953125 29.03125 15 29.03125 C 14.046875 29.03125 13.101562 28.9375 12.167969 28.753906 C 11.234375 28.566406 10.324219 28.292969 9.445312 27.925781 C 8.5625 27.5625 7.726562 27.117188 6.933594 26.585938 C 6.144531 26.054688 5.410156 25.453125 4.734375 24.78125 C 4.0625 24.105469 3.460938 23.375 2.929688 22.582031 C 2.402344 21.789062 1.953125 20.953125 1.589844 20.070312 C 1.222656 19.191406 0.949219 18.28125 0.761719 17.347656 C 0.578125 16.414062 0.484375 15.46875 0.484375 14.515625 C 0.484375 13.5625 0.578125 12.617188 0.761719 11.683594 C 0.949219 10.75 1.222656 9.839844 1.589844 8.960938 C 1.953125 8.082031 2.402344 7.242188 2.929688 6.453125 C 3.460938 5.660156 4.0625 4.925781 4.734375 4.25 C 5.410156 3.578125 6.144531 2.976562 6.933594 2.445312 C 7.726562 1.917969 8.5625 1.46875 9.445312 1.105469 C 10.324219 0.738281 11.234375 0.464844 12.167969 0.277344 C 13.101562 0.09375 14.046875 0 15 0 C 15.953125 0 16.898438 0.09375 17.832031 0.277344 C 18.765625 0.464844 19.675781 0.738281 20.554688 1.105469 C 21.4375 1.46875 22.273438 1.917969 23.066406 2.445312 C 23.855469 2.976562 24.589844 3.578125 25.265625 4.25 C 25.9375 4.925781 26.539062 5.660156 27.070312 6.453125 C 27.597656 7.242188 28.046875 8.082031 28.410156 8.960938 C 28.777344 9.839844 29.050781 10.75 29.238281 11.683594 C 29.421875 12.617188 29.515625 13.5625 29.515625 14.515625 Z M 29.515625 14.515625 " fill-opacity="1" fill-rule="nonzero"/></g><path fill="#ffffff" d="M 12.34375 22.171875 C 18.78125 22.171875 22.300781 16.839844 22.300781 12.214844 C 22.300781 12.0625 22.300781 11.910156 22.292969 11.765625 C 22.976562 11.273438 23.570312 10.65625 24.042969 9.949219 C 23.417969 10.226562 22.746094 10.414062 22.03125 10.503906 C 22.757812 10.066406 23.308594 9.382812 23.570312 8.566406 C 22.898438 8.964844 22.148438 9.253906 21.351562 9.414062 C 20.710938 8.730469 19.804688 8.308594 18.796875 8.308594 C 16.867188 8.308594 15.296875 9.878906 15.296875 11.808594 C 15.296875 12.085938 15.328125 12.351562 15.390625 12.605469 C 12.480469 12.460938 9.90625 11.070312 8.175781 8.949219 C 7.878906 9.464844 7.707031 10.066406 7.707031 10.707031 C 7.707031 11.917969 8.324219 12.992188 9.265625 13.617188 C 8.691406 13.601562 8.15625 13.441406 7.683594 13.179688 C 7.683594 13.195312 7.683594 13.210938 7.683594 13.222656 C 7.683594 14.921875 8.890625 16.332031 10.492188 16.65625 C 10.203125 16.738281 9.890625 16.78125 9.570312 16.78125 C 9.347656 16.78125 9.128906 16.757812 8.910156 16.714844 C 9.351562 18.109375 10.644531 19.117188 12.175781 19.148438 C 10.980469 20.082031 9.46875 20.640625 7.828125 20.640625 C 7.546875 20.640625 7.269531 20.628906 6.996094 20.589844 C 8.527344 21.59375 10.371094 22.171875 12.34375 22.171875 " fill-opacity="1" fill-rule="nonzero"/></svg>