<svg xmlns="http://www.w3.org/2000/svg" xmlns:xlink="http://www.w3.org/1999/xlink" width="40" zoomAndPan="magnify" viewBox="0 0 30 30.000001" height="40" preserveAspectRatio="xMidYMid meet" version="1.0"><defs><clipPath id="id1"><path d="M 0.484375 0 L 29.515625 0 L 29.515625 29.03125 L 0.484375 29.03125 Z M 0.484375 0 " clip-rule="nonzero"/></clipPath></defs><path fill="#d43377" d="M 15 11.296875 C 13.226562 11.296875 11.78125 12.742188 11.78125 14.515625 C 11.78125 16.289062 13.226562 17.734375 15 17.734375 C 16.773438 17.734375 18.21875 16.289062 18.21875 14.515625 C 18.21875 12.742188 16.773438 11.296875 15 11.296875 Z M 15 11.296875 " fill-opacity="1" fill-rule="nonzero"/><path fill="#d43377" d="M 19.324219 6.625 L 10.675781 6.625 C 8.714844 6.625 7.105469 8.21875 7.105469 10.191406 L 7.105469 18.839844 C 7.105469 20.800781 8.703125 22.410156 10.675781 22.410156 L 19.324219 22.410156 C 21.285156 22.410156 22.894531 20.8125 22.894531 18.839844 L 22.894531 10.191406 C 22.878906 8.21875 21.285156 6.625 19.324219 6.625 Z M 15 19.355469 C 12.324219 19.355469 10.148438 17.179688 10.148438 14.503906 C 10.148438 11.828125 12.324219 9.652344 15 9.652344 C 17.675781 9.652344 19.851562 11.828125 19.851562 14.503906 C 19.839844 17.179688 17.664062 19.355469 15 19.355469 Z M 20.191406 10.46875 C 19.550781 10.46875 19.023438 9.941406 19.023438 9.300781 C 19.023438 8.660156 19.550781 8.132812 20.191406 8.132812 C 20.832031 8.132812 21.359375 8.660156 21.359375 9.300781 C 21.359375 9.953125 20.84375 10.46875 20.191406 10.46875 Z M 20.191406 10.46875 " fill-opacity="1" fill-rule="nonzero"/><g clip-path="url(#id1)"><path fill="#d43377" d="M 15 0 C 6.980469 0 0.484375 6.496094 0.484375 14.515625 C 0.484375 22.535156 6.980469 29.03125 15 29.03125 C 23.019531 29.03125 29.515625 22.535156 29.515625 14.515625 C 29.503906 6.496094 23.007812 0 15 0 Z M 24.515625 18.839844 C 24.515625 21.703125 22.175781 24.042969 19.3125 24.042969 L 10.675781 24.042969 C 7.8125 24.042969 5.472656 21.703125 5.472656 18.839844 L 5.472656 10.191406 C 5.472656 7.328125 7.8125 4.988281 10.675781 4.988281 L 19.324219 4.988281 C 22.1875 4.988281 24.527344 7.328125 24.527344 10.191406 L 24.527344 18.839844 Z M 24.515625 18.839844 " fill-opacity="1" fill-rule="nonzero"/></g></svg>