<svg xmlns="http://www.w3.org/2000/svg" xmlns:xlink="http://www.w3.org/1999/xlink" width="40" zoomAndPan="magnify" viewBox="0 0 30 30.000001" height="40" preserveAspectRatio="xMidYMid meet" version="1.0"><defs><clipPath id="id1"><path d="M 0.484375 0 L 29.515625 0 L 29.515625 29.03125 L 0.484375 29.03125 Z M 0.484375 0 " clip-rule="nonzero"/></clipPath></defs><g clip-path="url(#id1)"><path fill="#1a4789" d="M 29.515625 14.515625 C 29.515625 15.46875 29.425781 16.414062 29.238281 17.347656 C 29.050781 18.285156 28.777344 19.191406 28.414062 20.070312 C 28.046875 20.953125 27.601562 21.789062 27.070312 22.582031 C 26.542969 23.375 25.941406 24.105469 25.265625 24.78125 C 24.59375 25.453125 23.859375 26.058594 23.066406 26.585938 C 22.273438 27.117188 21.4375 27.5625 20.554688 27.929688 C 19.675781 28.292969 18.769531 28.566406 17.832031 28.753906 C 16.898438 28.941406 15.953125 29.03125 15 29.03125 C 14.046875 29.03125 13.105469 28.941406 12.167969 28.753906 C 11.234375 28.566406 10.328125 28.292969 9.445312 27.929688 C 8.566406 27.5625 7.730469 27.117188 6.9375 26.585938 C 6.144531 26.058594 5.410156 25.453125 4.738281 24.78125 C 4.0625 24.105469 3.460938 23.375 2.929688 22.582031 C 2.402344 21.789062 1.953125 20.953125 1.589844 20.070312 C 1.226562 19.191406 0.949219 18.285156 0.765625 17.347656 C 0.578125 16.414062 0.484375 15.46875 0.484375 14.515625 C 0.484375 13.5625 0.578125 12.621094 0.765625 11.683594 C 0.949219 10.75 1.226562 9.84375 1.589844 8.960938 C 1.953125 8.082031 2.402344 7.246094 2.929688 6.453125 C 3.460938 5.660156 4.0625 4.925781 4.738281 4.25 C 5.410156 3.578125 6.144531 2.976562 6.9375 2.445312 C 7.730469 1.917969 8.566406 1.46875 9.445312 1.105469 C 10.328125 0.742188 11.234375 0.464844 12.167969 0.277344 C 13.105469 0.09375 14.046875 0 15 0 C 15.953125 0 16.898438 0.09375 17.832031 0.277344 C 18.769531 0.464844 19.675781 0.742188 20.554688 1.105469 C 21.4375 1.46875 22.273438 1.917969 23.066406 2.445312 C 23.859375 2.976562 24.59375 3.578125 25.265625 4.25 C 25.941406 4.925781 26.542969 5.660156 27.070312 6.453125 C 27.601562 7.246094 28.046875 8.082031 28.414062 8.960938 C 28.777344 9.84375 29.050781 10.75 29.238281 11.683594 C 29.425781 12.621094 29.515625 13.5625 29.515625 14.515625 Z M 29.515625 14.515625 " fill-opacity="1" fill-rule="nonzero"/></g><path fill="#ffffff" d="M 18.644531 15.261719 L 19.054688 12.082031 L 15.902344 12.082031 L 15.902344 10.050781 C 15.902344 9.128906 16.160156 8.5 17.480469 8.5 L 19.164062 8.5 L 19.164062 5.652344 C 18.875 5.613281 17.875 5.527344 16.710938 5.527344 C 14.28125 5.527344 12.617188 7.011719 12.617188 9.734375 L 12.617188 12.082031 L 9.871094 12.082031 L 9.871094 15.261719 L 12.617188 15.261719 L 12.617188 23.429688 L 15.902344 23.429688 L 15.902344 15.261719 Z M 18.644531 15.261719 " fill-opacity="1" fill-rule="nonzero"/></svg>