<svg xmlns="http://www.w3.org/2000/svg" xmlns:xlink="http://www.w3.org/1999/xlink" width="40" zoomAndPan="magnify" viewBox="0 0 30 30.000001" height="40" preserveAspectRatio="xMidYMid meet" version="1.0"><defs><clipPath id="id1"><path d="M 0.484375 0 L 29.515625 0 L 29.515625 29.03125 L 0.484375 29.03125 Z M 0.484375 0 " clip-rule="nonzero"/></clipPath><clipPath id="id2"><path d="M 4 4 L 29.515625 4 L 29.515625 29.03125 L 4 29.03125 Z M 4 4 " clip-rule="nonzero"/></clipPath><clipPath id="id3"><path d="M 8 10 L 29.515625 10 L 29.515625 29 L 8 29 Z M 8 10 " clip-rule="nonzero"/></clipPath></defs><g clip-path="url(#id1)"><path fill="#d42428" d="M 0.484375 14.53125 C 0.484375 6.507812 6.992188 0 15.015625 0 C 23.042969 0 29.550781 6.507812 29.550781 14.53125 C 29.550781 22.558594 23.042969 29.066406 15.015625 29.066406 C 6.992188 29.066406 0.484375 22.558594 0.484375 14.53125 Z M 0.484375 14.53125 " fill-opacity="1" fill-rule="nonzero"/></g><g clip-path="url(#id2)"><path fill="#cc202d" d="M 25.292969 4.257812 C 30.96875 9.933594 30.96875 19.136719 25.292969 24.808594 C 19.617188 30.484375 10.414062 30.484375 4.742188 24.808594 Z M 25.292969 4.257812 " fill-opacity="1" fill-rule="nonzero"/></g><g clip-path="url(#id3)"><path fill="#ba202e" d="M 29.257812 17.445312 L 22.0625 10.25 L 13.582031 11.21875 L 8.449219 19.160156 L 18.039062 28.75 C 23.675781 27.554688 28.109375 23.097656 29.257812 17.445312 " fill-opacity="1" fill-rule="nonzero"/></g><path fill="#ffffff" d="M 22.621094 11.726562 C 22.621094 10.507812 21.636719 9.523438 20.417969 9.523438 L 10.074219 9.523438 C 8.855469 9.523438 7.871094 10.515625 7.871094 11.726562 L 7.871094 17.644531 C 7.871094 18.863281 8.855469 19.851562 10.074219 19.851562 L 20.410156 19.851562 C 21.628906 19.851562 22.613281 18.863281 22.613281 17.644531 L 22.613281 11.726562 Z M 13.769531 17.179688 L 13.769531 11.628906 L 17.980469 14.402344 Z M 13.769531 17.179688 " fill-opacity="1" fill-rule="evenodd"/></svg>