<svg xmlns="http://www.w3.org/2000/svg" xmlns:xlink="http://www.w3.org/1999/xlink" width="500" zoomAndPan="magnify" viewBox="0 0 375 374.999991" height="500" preserveAspectRatio="xMidYMid meet" version="1.0"><defs><clipPath id="id1"><path d="M 10.789062 7.433594 L 364.773438 7.433594 L 364.773438 366.679688 L 10.789062 366.679688 Z M 10.789062 7.433594 " clip-rule="nonzero"/></clipPath></defs><path fill="#fce6e2" d="M 176.9375 321.761719 L 349.566406 230.179688 L 349.761719 233.257812 C 349.761719 233.257812 349.664062 238.832031 350.398438 241.472656 C 351.203125 244.40625 353.257812 247.730469 354.578125 250.933594 C 356.214844 254.917969 360.226562 265.480469 360.226562 265.480469 L 356.949219 272.15625 C 356.949219 272.15625 189.96875 360.707031 186.667969 361.707031 C 183.367188 362.710938 159.359375 350.265625 176.9375 321.761719 " fill-opacity="1" fill-rule="evenodd"/><g clip-path="url(#id1)"><path fill="#002f52" d="M 272.726562 301.980469 C 261.480469 308.117188 250.234375 314.28125 239.84375 319.976562 C 212.242188 335.109375 190.582031 347.039062 190.582031 347.039062 C 190.289062 347.210938 190.164062 347.578125 190.335938 347.871094 C 190.507812 348.1875 190.875 348.285156 191.167969 348.117188 C 191.167969 348.117188 212.925781 336.378906 240.601562 321.34375 C 251.015625 315.699219 262.261719 309.585938 273.507812 303.449219 C 281.84375 298.902344 290.183594 294.328125 298.175781 289.953125 C 329.566406 272.742188 355.652344 258.390625 355.652344 258.390625 C 355.949219 258.21875 356.070312 257.851562 355.898438 257.558594 C 355.726562 257.265625 355.359375 257.144531 355.066406 257.316406 C 355.066406 257.316406 328.882812 271.472656 297.417969 288.558594 C 289.425781 292.910156 281.0625 297.433594 272.726562 301.980469 Z M 187.621094 339.972656 C 187.621094 339.972656 209.382812 328.238281 237.054688 313.226562 C 247.472656 307.554688 258.71875 301.445312 269.988281 295.308594 C 278.324219 290.761719 286.636719 286.1875 294.632812 281.8125 C 326.023438 264.601562 352.109375 250.226562 352.109375 250.226562 C 352.402344 250.078125 352.523438 249.710938 352.355469 249.417969 C 352.183594 249.125 351.816406 249.027344 351.546875 249.175781 C 351.546875 249.175781 325.339844 263.328125 293.875 280.417969 C 285.878906 284.769531 277.519531 289.292969 269.179688 293.839844 C 257.933594 299.976562 246.6875 306.136719 236.296875 311.835938 C 208.695312 326.96875 187.035156 338.898438 187.035156 338.898438 C 186.742188 339.070312 186.621094 339.4375 186.792969 339.753906 C 186.960938 340.046875 187.328125 340.144531 187.621094 339.972656 Z M 266.515625 285.285156 C 274.851562 280.738281 283.191406 276.164062 291.160156 271.789062 C 322.574219 254.578125 348.660156 240.226562 348.660156 240.226562 C 348.957031 240.054688 349.054688 239.6875 348.90625 239.394531 C 348.734375 239.101562 348.367188 238.980469 348.074219 239.152344 C 348.074219 239.152344 321.890625 253.304688 290.402344 270.394531 C 282.40625 274.746094 274.070312 279.269531 265.710938 283.816406 C 254.464844 289.953125 243.242188 296.113281 232.851562 301.8125 C 205.226562 316.945312 183.589844 328.875 183.589844 328.875 C 183.269531 329.046875 183.171875 329.414062 183.34375 329.707031 C 183.492188 330.023438 183.882812 330.121094 184.175781 329.976562 C 184.175781 329.976562 205.933594 318.214844 233.609375 303.203125 C 244.023438 297.53125 255.269531 291.421875 266.515625 285.285156 Z M 364.308594 273.914062 C 364.308594 273.914062 196.253906 380.289062 174.347656 365.523438 C 154.078125 351.90625 12.160156 125.222656 12.160156 125.222656 C 12.160156 125.222656 2.648438 100.285156 33.597656 81.507812 L 195.835938 7.457031 L 353.183594 229.835938 C 353.183594 229.835938 213.390625 299.023438 185.203125 320.269531 C 175.324219 327.703125 166.644531 353.761719 184.054688 357.332031 C 201.460938 360.902344 357.121094 269.6875 361.789062 265.40625 C 366.484375 261.128906 364.308594 273.914062 364.308594 273.914062 " fill-opacity="1" fill-rule="evenodd"/></g><path fill="#eb9b00" d="M 220.871094 260.199219 C 220.847656 259.90625 220.824219 259.613281 220.796875 259.320312 C 220.773438 258.929688 220.726562 258.316406 220.578125 257.78125 C 220.503906 257.558594 220.457031 257.339844 220.332031 257.191406 C 220.261719 257.558594 220.113281 258.367188 220.164062 258.609375 C 220.261719 259.171875 220.503906 259.710938 220.871094 260.199219 Z M 240.601562 252.351562 C 242.117188 251.691406 243.484375 250.835938 244.804688 249.859375 C 248.058594 247.488281 250.96875 244.578125 254.585938 242.648438 C 257.300781 241.230469 260.355469 240.640625 263.191406 239.542969 C 263.851562 239.273438 264.511719 238.980469 265.121094 238.636719 C 266.371094 237.976562 267.496094 237.171875 268.570312 236.289062 C 271.210938 234.164062 273.628906 231.667969 276.515625 229.835938 C 277.125 229.46875 277.761719 229.125 278.398438 228.832031 C 280.84375 227.707031 283.457031 227.074219 285.734375 225.65625 C 286.492188 225.191406 287.078125 224.652344 287.589844 224.066406 C 288.472656 223.0625 289.179688 221.964844 290.058594 220.886719 C 290.351562 220.546875 290.867188 220.496094 291.207031 220.789062 C 291.550781 221.058594 291.601562 221.574219 291.308594 221.914062 C 290.425781 223.015625 289.742188 224.140625 288.863281 225.167969 C 288.25 225.875 287.542969 226.535156 286.660156 227.121094 C 284.339844 228.589844 281.675781 229.296875 279.179688 230.496094 C 278.617188 230.765625 278.054688 231.058594 277.519531 231.425781 C 274.707031 233.234375 272.410156 235.726562 269.816406 237.832031 C 268.667969 238.785156 267.445312 239.6875 266.125 240.421875 C 265.417969 240.8125 264.707031 241.15625 263.972656 241.449219 C 261.210938 242.574219 258.226562 243.136719 255.613281 244.554688 C 252.09375 246.4375 249.28125 249.320312 246.125 251.667969 C 244.683594 252.71875 243.144531 253.671875 241.480469 254.382812 C 240.550781 254.796875 239.769531 255.238281 239.035156 255.726562 C 237.03125 257.046875 235.417969 258.585938 233.265625 259.808594 C 232.949219 259.980469 232.632812 260.078125 232.3125 260.152344 C 231.875 260.226562 231.457031 260.199219 231.019531 260.175781 C 230.699219 260.175781 230.359375 260.101562 230.0625 260.273438 C 229.332031 260.664062 228.890625 261.300781 228.402344 261.886719 C 227.9375 262.449219 227.472656 262.988281 226.910156 263.402344 C 226.273438 263.84375 225.515625 264.160156 224.539062 264.234375 C 223.828125 264.257812 223.121094 264.160156 222.460938 263.917969 C 222.4375 264.0625 222.410156 264.210938 222.386719 264.332031 C 222.09375 266.019531 221.628906 267.679688 221.117188 269.269531 C 220.921875 269.882812 220.699219 270.515625 220.433594 271.105469 C 220.1875 271.738281 219.917969 272.328125 219.574219 272.914062 C 219.453125 273.15625 218.941406 273.5 218.621094 273.792969 C 218.597656 273.890625 218.550781 273.988281 218.5 274.0625 C 218.523438 273.988281 218.523438 273.914062 218.523438 273.867188 C 218.355469 274.011719 218.253906 274.160156 218.328125 274.234375 C 218.328125 274.234375 218.328125 274.234375 218.355469 274.234375 C 218.304688 274.257812 218.28125 274.308594 218.253906 274.332031 C 217.253906 274.941406 216.886719 273.621094 216.910156 273.523438 C 216.910156 273.476562 216.960938 273.253906 217.203125 273.011719 C 217.375 272.863281 217.960938 272.398438 218.109375 272.132812 C 218.402344 271.59375 218.648438 271.054688 218.867188 270.492188 C 219.085938 269.90625 219.28125 269.320312 219.453125 268.734375 C 219.917969 267.21875 220.332031 265.652344 220.601562 264.039062 C 220.652344 263.695312 220.699219 263.328125 220.75 262.964844 C 220.628906 262.890625 220.503906 262.792969 220.382812 262.695312 C 219.257812 261.714844 218.453125 260.371094 218.207031 258.976562 C 218.109375 258.367188 218.207031 256.65625 218.816406 255.824219 C 219.308594 255.1875 219.96875 254.871094 220.894531 255.238281 C 221.433594 255.457031 221.824219 255.875 222.117188 256.433594 C 222.535156 257.292969 222.632812 258.488281 222.679688 259.171875 C 222.753906 260.054688 222.753906 260.910156 222.679688 261.789062 C 223.21875 262.058594 223.804688 262.179688 224.390625 262.15625 C 224.929688 262.105469 225.347656 261.9375 225.6875 261.691406 C 226.226562 261.300781 226.617188 260.738281 227.03125 260.199219 C 227.59375 259.515625 228.207031 258.855469 229.039062 258.390625 C 229.355469 258.21875 229.671875 258.121094 230.015625 258.074219 C 230.40625 258 230.820312 258.023438 231.238281 258.023438 C 231.554688 258.050781 231.898438 258.074219 232.191406 257.925781 C 234.292969 256.703125 235.859375 255.1875 237.8125 253.894531 C 238.644531 253.332031 239.550781 252.792969 240.601562 252.351562 Z M 207.179688 179.253906 C 205.152344 180.230469 203.121094 181.183594 201.167969 182.261719 C 200.652344 182.554688 200.117188 182.847656 199.625 183.164062 C 198.84375 183.652344 198.109375 184.140625 197.351562 184.65625 C 197.253906 184.703125 195.421875 185.902344 194.761719 186.417969 C 194.542969 186.585938 194.394531 186.710938 194.34375 186.78125 C 194.078125 187.125 194.125 187.441406 194.199219 187.613281 C 194.34375 188.03125 194.808594 188.273438 195.226562 188.101562 C 195.371094 188.054688 195.46875 187.980469 195.566406 187.882812 C 195.566406 187.859375 195.59375 187.859375 195.617188 187.835938 C 195.664062 187.785156 195.714844 187.710938 195.738281 187.636719 C 195.714844 187.664062 195.714844 187.761719 195.691406 187.808594 L 195.714844 187.808594 C 196.421875 187.371094 198.304688 186.441406 198.402344 186.367188 C 199.1875 185.925781 199.96875 185.511719 200.75 185.070312 C 201.265625 184.777344 201.777344 184.484375 202.265625 184.167969 C 204.171875 183.019531 206.054688 181.820312 207.964844 180.671875 C 208.355469 180.476562 208.5 179.984375 208.28125 179.570312 C 208.085938 179.179688 207.597656 179.03125 207.179688 179.253906 Z M 195.566406 187.882812 C 195.617188 187.957031 195.664062 187.882812 195.691406 187.808594 L 195.617188 187.835938 C 195.59375 187.859375 195.59375 187.882812 195.566406 187.882812 Z M 207.570312 170.011719 C 214.125 165.929688 220.699219 161.894531 227.226562 157.835938 C 229.964844 156.125 232.679688 154.414062 235.394531 152.679688 C 235.761719 152.433594 235.882812 151.945312 235.636719 151.554688 C 235.394531 151.1875 234.90625 151.0625 234.539062 151.308594 C 229.722656 154.21875 224.882812 157.078125 220.066406 159.9375 C 215.222656 162.824219 210.382812 165.683594 205.589844 168.617188 C 201.484375 171.136719 197.425781 173.753906 193.367188 176.390625 C 191.363281 177.738281 189.332031 179.105469 187.328125 180.449219 C 185.324219 181.820312 183.320312 183.214844 181.316406 184.605469 L 176.964844 187.6875 C 176.890625 187.761719 175.445312 188.835938 174.910156 189.324219 C 174.738281 189.472656 174.617188 189.59375 174.589844 189.667969 C 174.199219 190.253906 174.542969 190.644531 174.789062 190.792969 C 175.128906 191.0625 175.644531 190.988281 175.910156 190.644531 L 175.886719 190.644531 C 175.886719 190.621094 175.910156 190.621094 175.9375 190.597656 C 176.007812 190.5 176.058594 190.402344 176.058594 190.304688 C 176.058594 190.351562 176.058594 190.449219 176.035156 190.523438 C 176.570312 190.082031 177.890625 189.128906 177.964844 189.082031 L 182.367188 186.121094 L 194.542969 178.175781 C 198.84375 175.390625 203.21875 172.699219 207.570312 170.011719 Z M 175.9375 190.597656 L 175.910156 190.644531 C 175.984375 190.71875 176.035156 190.621094 176.035156 190.523438 L 175.984375 190.546875 C 175.984375 190.574219 175.960938 190.597656 175.9375 190.597656 Z M 202.339844 160.476562 C 195.226562 164.632812 188.136719 168.839844 181.070312 173.117188 L 166.378906 182.089844 C 166.207031 182.1875 163.441406 184.070312 162.292969 184.582031 C 162.269531 184.605469 162.246094 184.605469 162.222656 184.632812 L 162.246094 184.65625 C 162.246094 184.632812 162.222656 184.632812 162.195312 184.632812 C 162.148438 184.65625 162.097656 184.679688 162.097656 184.65625 C 162.097656 184.65625 162.097656 184.632812 162.097656 184.632812 C 161.925781 184.632812 161.730469 184.679688 161.5625 184.828125 C 161.21875 185.121094 161.195312 185.632812 161.464844 185.976562 C 161.585938 186.121094 161.757812 186.246094 162 186.292969 C 162.171875 186.316406 162.515625 186.292969 162.953125 186.097656 C 164.175781 185.585938 167.0625 183.703125 167.257812 183.605469 C 168.75 182.75 170.238281 181.867188 171.730469 181.011719 C 175.203125 178.984375 178.648438 176.90625 182.121094 174.875 C 188.183594 171.257812 194.320312 167.738281 200.410156 164.167969 C 206.519531 160.625 212.609375 157.003906 218.671875 153.386719 C 226.765625 148.523438 234.808594 143.558594 242.703125 138.398438 C 243.070312 138.15625 243.191406 137.667969 242.949219 137.277344 C 242.703125 136.910156 242.214844 136.785156 241.824219 137.03125 C 235.859375 140.796875 229.796875 144.4375 223.730469 148.03125 C 216.617188 152.214844 209.480469 156.320312 202.339844 160.476562 Z M 162.121094 184.632812 L 162.222656 184.632812 C 162.171875 184.605469 162.148438 184.632812 162.121094 184.632812 Z M 214.320312 131.578125 L 214.464844 131.96875 L 213.78125 131.285156 C 206.105469 123.414062 186.695312 103.144531 186.695312 103.144531 C 186.449219 102.902344 186.058594 102.878906 185.8125 103.121094 C 185.570312 103.339844 185.570312 103.734375 185.789062 104 C 185.789062 104 205.078125 124.414062 212.707031 132.335938 C 214 133.679688 214.980469 134.683594 215.46875 135.148438 C 215.617188 135.320312 215.738281 135.417969 215.8125 135.464844 C 216.300781 135.859375 216.714844 135.539062 216.789062 135.492188 C 216.886719 135.417969 217.15625 135.199219 217.082031 134.734375 C 217.082031 134.660156 217.035156 134.488281 216.960938 134.269531 C 216.789062 133.730469 216.375 132.582031 215.785156 131.015625 C 213.339844 124.5625 207.9375 110.96875 205.101562 103.804688 C 207.597656 106.714844 211.214844 110.824219 214.6875 114.636719 C 218.355469 118.671875 221.875 122.335938 223.878906 123.953125 C 224.097656 124.121094 226.886719 126.640625 228.132812 127.375 C 228.546875 127.617188 228.890625 127.691406 229.085938 127.667969 C 229.257812 127.644531 229.429688 127.59375 229.550781 127.496094 C 229.699219 127.375 229.867188 127.128906 229.894531 126.789062 C 229.917969 126.445312 229.746094 125.710938 229.429688 124.832031 C 228.546875 122.386719 226.566406 118.304688 226.421875 117.914062 L 223.730469 111.554688 L 219.355469 101.261719 C 218.621094 99.578125 217.863281 97.71875 217.082031 95.785156 C 215.320312 91.433594 213.464844 86.742188 211.921875 82.953125 C 211.800781 82.660156 211.433594 82.488281 211.140625 82.609375 C 210.824219 82.730469 210.675781 83.097656 210.800781 83.417969 C 212.316406 87.207031 214.125 91.925781 215.859375 96.277344 C 216.640625 98.207031 217.398438 100.089844 218.109375 101.777344 L 222.410156 112.09375 L 225.050781 118.476562 C 225.222656 118.890625 227.226562 123.070312 228.058594 125.46875 C 226.765625 124.464844 225.027344 122.875 224.855469 122.730469 C 222.902344 121.140625 219.453125 117.496094 215.882812 113.5625 C 209.699219 106.714844 203.097656 98.941406 203.097656 98.941406 C 202.855469 98.621094 202.390625 98.550781 202.046875 98.769531 C 201.703125 98.964844 201.535156 99.40625 201.703125 99.796875 C 201.703125 99.796875 210.871094 122.605469 214.320312 131.578125 Z M 173.320312 135.5625 C 173.417969 135.589844 173.417969 135.492188 173.394531 135.394531 C 173.371094 135.417969 173.371094 135.464844 173.34375 135.492188 C 173.320312 135.515625 173.296875 135.5625 173.320312 135.5625 Z M 166.132812 118.082031 C 165.59375 116.203125 165.277344 114.832031 165.226562 114.195312 C 165.179688 113.535156 165.449219 113.21875 165.59375 113.097656 C 165.765625 112.949219 165.984375 112.875 166.253906 112.902344 C 166.351562 112.925781 166.523438 112.972656 166.742188 113.070312 C 167.0625 113.265625 167.671875 113.707031 168.457031 114.34375 C 171.339844 116.714844 177.160156 122.09375 182.976562 127.8125 C 189.210938 133.902344 195.421875 140.355469 198.085938 143.828125 C 198.28125 144.070312 198.234375 144.464844 197.964844 144.683594 C 197.695312 144.878906 197.328125 144.828125 197.132812 144.5625 C 194.445312 141.164062 188.183594 134.855469 181.949219 128.867188 C 176.105469 123.265625 170.289062 117.960938 167.402344 115.640625 C 167.332031 115.566406 167.234375 115.492188 167.160156 115.417969 C 167.304688 116.03125 167.5 116.789062 167.722656 117.644531 C 168.847656 121.675781 170.851562 128.179688 172.90625 134.636719 C 172.929688 134.660156 172.953125 134.609375 172.976562 134.609375 C 173.222656 134.367188 173.515625 133.976562 173.785156 133.707031 C 174.324219 133.21875 174.859375 132.703125 175.226562 132.433594 C 175.765625 132.019531 176.253906 131.601562 176.742188 131.238281 C 177.28125 130.820312 177.792969 130.429688 178.355469 130.039062 C 179.066406 129.574219 179.824219 129.109375 180.753906 128.695312 C 181.070312 128.546875 181.414062 128.667969 181.582031 128.988281 C 181.707031 129.28125 181.609375 129.648438 181.289062 129.792969 C 180.703125 130.136719 180.214844 130.480469 179.726562 130.84375 C 179.015625 131.40625 178.382812 131.996094 177.671875 132.605469 C 177.207031 132.996094 176.71875 133.363281 176.15625 133.753906 C 175.839844 133.976562 175.300781 134.414062 174.789062 134.832031 C 174.175781 135.296875 173.636719 135.710938 173.296875 135.882812 C 173.296875 135.90625 173.320312 135.929688 173.320312 135.957031 C 175.8125 143.804688 178.257812 151.40625 179.089844 154.242188 C 179.1875 154.585938 179.015625 154.925781 178.675781 155.023438 C 178.355469 155.121094 178.015625 154.925781 177.917969 154.609375 C 177.035156 151.773438 174.46875 144.242188 171.878906 136.417969 C 169.628906 129.527344 167.332031 122.410156 166.132812 118.082031 Z M 168.0625 157.421875 C 167.84375 157.175781 167.476562 157.128906 167.207031 157.324219 L 151.097656 169.621094 L 143.785156 157.101562 L 137.820312 147.273438 L 131.929688 137.691406 C 131.855469 137.542969 129.925781 134.292969 129.242188 132.972656 C 129.214844 132.875 129.167969 132.800781 129.117188 132.753906 C 129.09375 132.800781 129.070312 132.875 129.042969 132.921875 C 129.070312 132.851562 129.09375 132.777344 129.09375 132.679688 C 129.042969 132.605469 129.042969 132.582031 129.070312 132.558594 C 128.996094 132.214844 128.679688 132.019531 128.335938 132.09375 C 128.164062 132.117188 127.722656 132.335938 127.894531 132.921875 C 127.921875 133.019531 127.992188 133.242188 128.140625 133.511719 C 128.800781 134.878906 130.683594 138.253906 130.757812 138.375 L 136.476562 148.058594 L 142.34375 157.957031 L 150.191406 171.183594 C 150.316406 171.378906 150.511719 171.503906 150.707031 171.550781 C 150.949219 171.601562 151.171875 171.527344 151.339844 171.40625 L 167.941406 158.277344 C 168.210938 158.082031 168.257812 157.691406 168.0625 157.421875 Z M 129.117188 132.753906 C 129.167969 132.628906 129.167969 132.53125 129.070312 132.558594 C 129.09375 132.605469 129.09375 132.628906 129.09375 132.679688 Z M 45.285156 139.621094 C 47.289062 136.566406 49.464844 134.121094 51.640625 132.191406 C 58.097656 126.445312 64.332031 125.199219 64.332031 125.199219 C 64.648438 125.125 64.894531 124.808594 64.820312 124.464844 C 64.769531 124.148438 64.453125 123.925781 64.109375 123.976562 C 64.109375 123.976562 57.484375 125.074219 50.589844 131.015625 C 48.316406 132.996094 45.996094 135.515625 43.890625 138.695312 C 42.597656 140.671875 41.398438 142.921875 40.347656 145.464844 C 38.390625 150.136719 36.925781 155.808594 36.3125 162.652344 C 36.265625 162.996094 36.507812 163.289062 36.851562 163.3125 C 37.167969 163.335938 37.460938 163.09375 37.511719 162.773438 C 38.246094 156.101562 39.808594 150.601562 41.789062 146.078125 C 42.839844 143.65625 44.039062 141.503906 45.285156 139.621094 Z M 329.738281 223.332031 L 190.800781 22.933594 L 58.070312 86.691406 L 195.960938 295.648438 Z M 335.851562 224.800781 C 335.703125 225.484375 335.238281 226.09375 334.605469 226.414062 L 196.300781 300.929688 C 195.203125 301.519531 193.832031 301.175781 193.148438 300.125 C 193.148438 300.125 53.816406 86.984375 53.84375 86.984375 C 53.550781 86.519531 53.453125 85.984375 53.597656 85.445312 C 53.746094 84.933594 54.085938 84.515625 54.574219 84.273438 L 54.574219 84.296875 L 190.582031 18.238281 C 191.535156 17.773438 192.683594 18.066406 193.292969 18.945312 L 335.484375 222.769531 C 335.898438 223.355469 336.023438 224.089844 335.851562 224.800781 Z M 187.648438 307.824219 C 187.816406 308.117188 187.71875 308.484375 187.425781 308.65625 C 187.132812 308.828125 186.765625 308.730469 186.59375 308.4375 C 177.523438 293.035156 167.820312 278.023438 157.820312 263.183594 C 143.835938 242.425781 129.242188 222.035156 114.988281 201.476562 C 105.453125 187.710938 96.089844 173.875 87.117188 159.816406 C 80.660156 149.71875 74.378906 139.550781 68.046875 129.402344 C 67.996094 129.402344 67.996094 129.453125 67.949219 129.453125 C 67.949219 129.453125 61.714844 130.699219 55.261719 136.46875 C 53.085938 138.375 50.910156 140.820312 48.902344 143.875 C 47.65625 145.785156 46.484375 147.910156 45.40625 150.332031 C 43.425781 154.878906 41.886719 160.378906 41.128906 167.027344 C 41.105469 167.371094 40.789062 167.617188 40.46875 167.566406 C 40.128906 167.542969 39.882812 167.25 39.929688 166.90625 C 40.542969 160.0625 42.007812 154.390625 43.964844 149.71875 C 45.015625 147.175781 46.214844 144.953125 47.511719 142.972656 C 49.613281 139.769531 51.933594 137.25 54.210938 135.269531 C 60.175781 130.136719 65.917969 128.621094 67.363281 128.328125 C 66.117188 126.324219 64.867188 124.316406 63.621094 122.335938 C 61.640625 119.207031 59.6875 116.101562 57.679688 113 C 55.824219 110.089844 53.941406 107.179688 52.058594 104.269531 C 50.175781 101.359375 48.269531 98.476562 46.386719 95.566406 C 45.652344 94.46875 42.546875 90.042969 41.617188 88.257812 C 41.421875 87.890625 41.324219 87.597656 41.300781 87.449219 C 41.25 87.132812 41.375 86.9375 41.472656 86.816406 C 41.617188 86.667969 41.910156 86.472656 42.375 86.71875 C 42.667969 86.863281 42.792969 87.230469 42.644531 87.523438 C 42.667969 87.574219 42.695312 87.621094 42.71875 87.671875 C 43.648438 89.429688 46.703125 93.78125 47.4375 94.882812 C 49.34375 97.765625 51.25 100.652344 53.15625 103.535156 C 55.066406 106.445312 56.949219 109.355469 58.828125 112.242188 C 61.863281 116.886719 64.820312 121.554688 67.777344 126.226562 C 74.671875 137.152344 81.46875 148.105469 88.4375 158.960938 C 97.433594 172.992188 106.847656 186.78125 116.355469 200.523438 C 130.609375 221.132812 145.105469 241.570312 159.019531 262.375 C 168.992188 277.289062 178.625 292.375 187.648438 307.824219 " fill-opacity="1" fill-rule="evenodd"/></svg>